<svg xmlns="http://www.w3.org/2000/svg" width="16" height="16" viewBox="0 0 16 16"><path fill="#fff" d="M8.2 0a1.8 1.8 0 0 1 1.1.3 3.1 3.1 0 0 1 1 1.1 4.2 4.2 0 0 1 .6 2.8 2.2 2.2 0 0 1-.4 1 1.3 1.3 0 0 1-1.7.4 2.9 2.9 0 0 1-1.4-1.3 4.2 4.2 0 0 1-.5-2.8A2 2 0 0 1 7.6.2h.6zM4 1.3h.6a2.3 2.3 0 0 1 1.2.9 4.2 4.2 0 0 1 .8 3.1 2.2 2.2 0 0 1-.4 1.1 1.3 1.3 0 0 1-1.6.3 2.8 2.8 0 0 1-1.3-1.1 4.2 4.2 0 0 1-.6-2.8 2 2 0 0 1 .7-1.3H4zm10 3a3.4 3.4 0 0 1-.7 3.1 1.2 1.2 0 0 1-1.2.4 1.2 1.2 0 0 1-.8-.7 3.2 3.2 0 0 1-.1-2.6 2.4 2.4 0 0 1 .7-1 1.1 1.1 0 0 1 1.9.3zm-12.8 4a2.3 2.3 0 0 1-.1-.9 1.1 1.1 0 0 1 1.1-1 2.3 2.3 0 0 1 1.3.5 3.4 3.4 0 0 1 1.4 1.8 2.2 2.2 0 0 1 .1.7 1.1 1.1 0 0 1-1.3 1.1 2.6 2.6 0 0 1-1.3-.6 3.4 3.4 0 0 1-1.2-1.6zm8.8 6.4c0 .8-.6 1.3-1.8 1.3H6.6a.1.1 0 0 1 0-.2h.1c.4-.1.4-.1.4-.9v-.3l.6-.2v.4a1.3 1.3 0 0 0 .1.7.7.7 0 0 0 .5.2c.6 0 1.1-.3 1.1-1a1.1 1.1 0 0 0-.8-1.1l.7-.5-.4.2H9a1.1 1.1 0 0 1 1 1.4z"/><path fill="#fff" d="M7.6 13.9v.6h.1l.5-.3.4-.4H8c-.3-.1-.4-.1-.4.1z"/><path fill="#fff" d="M13.9 11.5h.4a1.5 1.5 0 0 0 0-.2 1.7 1.7 0 0 0-.5-1.1 19.3 19.3 0 0 0-3.2-2.5 2.5 2.5 0 0 0-1.2-.4 3.3 3.3 0 0 0-1.7.3 2.3 2.3 0 0 0-1.1.9l-.5 1a19.5 19.5 0 0 0-.9 2.8 4.6 4.6 0 0 0-.1.9 1.4 1.4 0 0 0 1.4 1.5H7v-2.3c0-.5 0-.6-.3-.7h-.2a.1.1 0 0 1 0-.2H8a2.6 2.6 0 0 1 1.2.2.9.9 0 0 1 .5.9.9.9 0 0 1-.3.7h.2l1.2-.3h.4v-.4c0-.7 0-.8-.4-.9h-.2v-.2h1.7s.1.1 0 .2h-.1c-.4 0-.4.1-.4.9v.4h.9l.6-.2.3-.2a1.4 1.4 0 0 0 .7-.9h-.4s-.1-.2 0-.2z"/><path fill="#fff" d="M8.1 11.7h-.4c-.1 0-.1.1-.1.2v1.4c0 .2 0 .2.4.2s1.1-.2 1.1-.9a.9.9 0 0 0-1-.9zm7.4 4.3h-1.6a.1.1 0 0 1 0-.2h.1c.4-.1.4-.1.4-.9V14c0-.2 0-.2-.3-.2h-2c-.3 0-.3 0-.3.2v1c0 .7 0 .8.4.9h.2v.2h-1.7a.1.1 0 0 1 0-.2h.1c.4-.1.4-.1.4-.9v-2.1h.6v.3c0 .2 0 .2.3.2h2c.3 0 .3 0 .3-.2v-.8c0-.5 0-.7-.1-.8v-.2h1.2s.1.1 0 .2h-.1c-.4 0-.4.1-.4.9V15c0 .7 0 .8.4.9h.2s0 .1-.1.1z"/></svg>