<svg xmlns="http://www.w3.org/2000/svg" width="32" height="32" viewBox="0 0 32 32"><path fill="#fff" d="M15.4 0a3.6 3.6 0 0 1 2.1.6 6.2 6.2 0 0 1 2 2.1 8.4 8.4 0 0 1 1.1 5.6 4.4 4.4 0 0 1-.8 1.9 2.6 2.6 0 0 1-3.4.9 5.8 5.8 0 0 1-2.5-2.5 8.3 8.3 0 0 1-1.1-5.5A3.9 3.9 0 0 1 14.2.5l.4-.3zM7 2.6l1.2.2a4.6 4.6 0 0 1 2.4 1.8 8.4 8.4 0 0 1 1.6 6.3 4.3 4.3 0 0 1-.9 2.1 2.6 2.6 0 0 1-3.3.7 5.7 5.7 0 0 1-2.5-2.4 8.3 8.3 0 0 1-1-5.6 3.9 3.9 0 0 1 1.3-2.6l.4-.3zm20 6a6.7 6.7 0 0 1-1.4 6.2 2.3 2.3 0 0 1-2.3.8 2.4 2.4 0 0 1-1.6-1.4 6.4 6.4 0 0 1-.2-5.2 4.8 4.8 0 0 1 1.3-2 2.3 2.3 0 0 1 3.8.6zm-25.5 8a4.5 4.5 0 0 1-.2-1.9 2.1 2.1 0 0 1 2.3-2 4.7 4.7 0 0 1 2.7 1 6.7 6.7 0 0 1 2.6 3.6 4.3 4.3 0 0 1 .1 1.3 2.2 2.2 0 0 1-2.6 2.2 5.2 5.2 0 0 1-2.7-1.2 6.8 6.8 0 0 1-2.2-3zM19 29.4c0 1.6-1.2 2.6-3.6 2.6h-3.2a.3.3 0 0 1 0-.3h.2c.7-.1.8-.3.8-1.7v-.6l1.1-.3v.7a2.7 2.7 0 0 0 .3 1.5 1.3 1.3 0 0 0 1.1.4c1.2 0 2.1-.5 2.1-1.9a2.1 2.1 0 0 0-1.6-2.2h.1a4.4 4.4 0 0 1 1.4-1l-.7.4c0 .1.1.2.3.2a2.3 2.3 0 0 1 1.7 2.2z"/><path fill="#fff" d="M14.3 27.7V29h.1l1-.6.9-.8h-1.2c-.8-.3-.8-.2-.8.1z"/><path fill="#fff" d="M26.7 22.9h.8a2.9 2.9 0 0 0 0-.4 3.3 3.3 0 0 0-1.1-2.2 38.5 38.5 0 0 0-6.3-5 5 5 0 0 0-2.3-.9 6.6 6.6 0 0 0-3.4.7 4.6 4.6 0 0 0-2.1 1.9 17.9 17.9 0 0 0-1 2 39 39 0 0 0-1.7 5.6 9.1 9.1 0 0 0-.3 1.9 2.7 2.7 0 0 0 2.9 2.9h1v-4.7c0-1-.1-1.3-.7-1.3H12a.2.2 0 0 1 0-.3h3a5.2 5.2 0 0 1 2.3.4 1.8 1.8 0 0 1 1 1.7 1.7 1.7 0 0 1-.7 1.4l.4-.2a7.5 7.5 0 0 1 2.5-.6h.9V25c0-1.4-.1-1.7-.8-1.7h-.4c-.1-.1-.1-.3 0-.3h3.3c.1 0 .1.3 0 .3h-.3c-.8.1-.8.3-.8 1.7v.9h1.7l1.2-.4.7-.4a2.7 2.7 0 0 0 1.3-1.7h-.8c.1-.2.2-.5.2-.5z"/><path fill="#fff" d="M15.1 23.3h-.6c-.1 0-.2.1-.2.4v2.8c0 .4 0 .4.7.4s2.1-.5 2.1-1.7a1.8 1.8 0 0 0-2-1.9zM30 32h-3.3a.3.3 0 0 1 0-.3h.3c.8-.1.8-.3.8-1.7v-2c0-.4 0-.4-.7-.4h-3.9c-.7 0-.7 0-.7.4v1.9c0 1.4.1 1.6.8 1.7h.4c.1.1.1.3 0 .3h-3.3a.3.3 0 0 1 0-.3h.2c.8-.1.8-.3.8-1.7v-4.2h1.1v.7c0 .4 0 .4.7.4h3.9c.7 0 .7 0 .7-.4V25c0-1 0-1.4-.3-1.6a2.6 2.6 0 0 0 .1-.5H30c.1 0 .1.3 0 .3h-.3c-.8.1-.8.3-.8 1.7v4.9c0 1.4 0 1.6.8 1.7h.3c.2.2.1.5 0 .5z"/></svg>