<svg xmlns="http://www.w3.org/2000/svg" width="64" height="64" viewBox="0 0 64 64"><path fill="#fff" d="M31.5 0a7.1 7.1 0 0 1 4.3 1.2 12.4 12.4 0 0 1 3.9 4.3 16.7 16.7 0 0 1 2.2 11.1 8.9 8.9 0 0 1-1.5 3.9 5.2 5.2 0 0 1-6.8 1.7 11.5 11.5 0 0 1-5-5 16.5 16.5 0 0 1-2.2-11A7.8 7.8 0 0 1 29.3 1l.7-.5zM14.9 5.1a15.5 15.5 0 0 1 2.5.4 9.2 9.2 0 0 1 4.7 3.7 16.7 16.7 0 0 1 3.2 12.5 8.6 8.6 0 0 1-1.8 4.3 5.2 5.2 0 0 1-6.5 1.2 11.3 11.3 0 0 1-4.9-4.8 16.5 16.5 0 0 1-2.3-11.1 7.8 7.8 0 0 1 2.8-5.2l.8-.6zm39.9 12c.9 4.5.4 8.8-2.8 12.3a4.6 4.6 0 0 1-4.7 1.7 4.9 4.9 0 0 1-3.2-2.8 12.8 12.8 0 0 1-.3-10.3 9.6 9.6 0 0 1 2.6-4.1c2.6-2.4 5.8-1.9 7.5 1.2.3.7.6 1.4.9 2zm-50.9 16a9 9 0 0 1-.5-3.7 4.3 4.3 0 0 1 4.5-4 9.3 9.3 0 0 1 5.4 2 13.4 13.4 0 0 1 5.2 7.2 8.6 8.6 0 0 1 .3 2.7 4.4 4.4 0 0 1-5.2 4.4 10.4 10.4 0 0 1-5.3-2.4 13.6 13.6 0 0 1-4.4-6.2zm34.9 25.4c0 3.2-2.3 5.3-7.2 5.3h-6.4a.5.5 0 0 1-.1-.7h.5c1.4-.2 1.5-.5 1.5-3.4v-1.3l2.2-.7v1.5a5.3 5.3 0 0 0 .6 3 2.6 2.6 0 0 0 2.2.8c2.4 0 4.3-1.1 4.3-3.8a4.2 4.2 0 0 0-3.1-4.4h.1a8.8 8.8 0 0 1 2.8-2l-1.5.9c0 .3.2.4.5.4a4.5 4.5 0 0 1 3.6 4.4z"/><path fill="#fff" d="M29.4 55.2v2.6h.2l1.9-1.2 1.8-1.7a8.1 8.1 0 0 0-2.3-.3c-1.5-.1-1.6 0-1.6.6z"/><path fill="#fff" d="M54.2 45.6h1.7a5.9 5.9 0 0 0 0-.7 6.7 6.7 0 0 0-2.1-4.3 76.7 76.7 0 0 0-12.6-10 10 10 0 0 0-4.7-1.8 13.2 13.2 0 0 0-6.7 1.3 9.3 9.3 0 0 0-4.3 3.7 35.7 35.7 0 0 0-1.9 4.1A77.7 77.7 0 0 0 20.1 49a18.1 18.1 0 0 0-.6 3.8 5.5 5.5 0 0 0 5.7 5.8l1.8-.2h.1v-9.1c0-2-.1-2.5-1.3-2.6h-.9a.4.4 0 0 1 0-.7l5.9-.2a10.4 10.4 0 0 1 4.6.8 3.6 3.6 0 0 1 2.1 3.4 3.4 3.4 0 0 1-1.3 2.8l.9-.4a14.9 14.9 0 0 1 4.9-1.2h1.7v-1.4c0-2.9-.2-3.3-1.6-3.4h-.7c-.2-.1-.1-.6.1-.7h6.6c.2.1.2.6.1.7h-.5c-1.6.2-1.6.6-1.6 3.4v1.8a9.4 9.4 0 0 0 3.1 0h.4l2.4-.7 1.4-.8a5.5 5.5 0 0 0 2.7-3.5l-1.1-.3h-.5c-.5-.1-.4-.6-.3-.7z"/><path fill="#fff" d="M31 46.5l-1.3.2c-.3.1-.4.2-.4.7v5.5c0 .8 0 .8 1.4.8s4.3-.9 4.3-3.5-1.9-3.7-4-3.7zm29.8 17.3h-6.6a.5.5 0 0 1-.1-.7h.5c1.7-.3 1.7-.5 1.7-3.4v-3.9c0-.8-.1-.9-1.4-.9h-7.7c-1.3 0-1.4.1-1.4.9v3.8c0 2.9.1 3.2 1.7 3.4h.8c.2.1.1.6-.1.7h-6.6a.5.5 0 0 1-.1-.7h.5c1.5-.3 1.6-.5 1.6-3.4v-8.4l1 .2 1.2.2v1.3c0 .8.1.9 1.4.9H55c1.3 0 1.4 0 1.4-.9v-3.1c0-2 0-2.8-.6-3.2a5.3 5.3 0 0 0 .1-.9h4.8c.2.1.2.6.1.7h-.6c-1.6.2-1.6.6-1.6 3.4v9.8c0 2.9.1 3.2 1.6 3.4h.7c.1.2.1.7-.1.8z"/></svg>