<svg xmlns="http://www.w3.org/2000/svg"><symbol id="16" viewBox="0 0 16 16"><path fill="#fff" d="M8.2 0a1.8 1.8 0 0 1 1.1.3 3.1 3.1 0 0 1 1 1.1 4.2 4.2 0 0 1 .6 2.8 2.2 2.2 0 0 1-.4 1 1.3 1.3 0 0 1-1.7.4 2.9 2.9 0 0 1-1.4-1.3 4.2 4.2 0 0 1-.5-2.8A2 2 0 0 1 7.6.2h.6zM4 1.3h.6a2.3 2.3 0 0 1 1.2.9 4.2 4.2 0 0 1 .8 3.1 2.2 2.2 0 0 1-.4 1.1 1.3 1.3 0 0 1-1.6.3 2.8 2.8 0 0 1-1.3-1.1 4.2 4.2 0 0 1-.6-2.8 2 2 0 0 1 .7-1.3H4zm10 3a3.4 3.4 0 0 1-.7 3.1 1.2 1.2 0 0 1-1.2.4 1.2 1.2 0 0 1-.8-.7 3.2 3.2 0 0 1-.1-2.6 2.4 2.4 0 0 1 .7-1 1.1 1.1 0 0 1 1.9.3zm-12.8 4a2.3 2.3 0 0 1-.1-.9 1.1 1.1 0 0 1 1.1-1 2.3 2.3 0 0 1 1.3.5 3.4 3.4 0 0 1 1.4 1.8 2.2 2.2 0 0 1 .1.7 1.1 1.1 0 0 1-1.3 1.1 2.6 2.6 0 0 1-1.3-.6 3.4 3.4 0 0 1-1.2-1.6zm8.8 6.4c0 .8-.6 1.3-1.8 1.3H6.6a.1.1 0 0 1 0-.2h.1c.4-.1.4-.1.4-.9v-.3l.6-.2v.4a1.3 1.3 0 0 0 .1.7.7.7 0 0 0 .5.2c.6 0 1.1-.3 1.1-1a1.1 1.1 0 0 0-.8-1.1l.7-.5-.4.2H9a1.1 1.1 0 0 1 1 1.4z"/><path fill="#fff" d="M7.6 13.9v.6h.1l.5-.3.4-.4H8c-.3-.1-.4-.1-.4.1z"/><path fill="#fff" d="M13.9 11.5h.4a1.5 1.5 0 0 0 0-.2 1.7 1.7 0 0 0-.5-1.1 19.3 19.3 0 0 0-3.2-2.5 2.5 2.5 0 0 0-1.2-.4 3.3 3.3 0 0 0-1.7.3 2.3 2.3 0 0 0-1.1.9l-.5 1a19.5 19.5 0 0 0-.9 2.8 4.6 4.6 0 0 0-.1.9 1.4 1.4 0 0 0 1.4 1.5H7v-2.3c0-.5 0-.6-.3-.7h-.2a.1.1 0 0 1 0-.2H8a2.6 2.6 0 0 1 1.2.2.9.9 0 0 1 .5.9.9.9 0 0 1-.3.7h.2l1.2-.3h.4v-.4c0-.7 0-.8-.4-.9h-.2v-.2h1.7s.1.1 0 .2h-.1c-.4 0-.4.1-.4.9v.4h.9l.6-.2.3-.2a1.4 1.4 0 0 0 .7-.9h-.4s-.1-.2 0-.2z"/><path fill="#fff" d="M8.1 11.7h-.4c-.1 0-.1.1-.1.2v1.4c0 .2 0 .2.4.2s1.1-.2 1.1-.9a.9.9 0 0 0-1-.9zm7.4 4.3h-1.6a.1.1 0 0 1 0-.2h.1c.4-.1.4-.1.4-.9V14c0-.2 0-.2-.3-.2h-2c-.3 0-.3 0-.3.2v1c0 .7 0 .8.4.9h.2v.2h-1.7a.1.1 0 0 1 0-.2h.1c.4-.1.4-.1.4-.9v-2.1h.6v.3c0 .2 0 .2.3.2h2c.3 0 .3 0 .3-.2v-.8c0-.5 0-.7-.1-.8v-.2h1.2s.1.1 0 .2h-.1c-.4 0-.4.1-.4.9V15c0 .7 0 .8.4.9h.2s0 .1-.1.1z"/></symbol><symbol id="32" viewBox="0 0 32 32"><path fill="#fff" d="M15.4 0a3.6 3.6 0 0 1 2.1.6 6.2 6.2 0 0 1 2 2.1 8.4 8.4 0 0 1 1.1 5.6 4.4 4.4 0 0 1-.8 1.9 2.6 2.6 0 0 1-3.4.9 5.8 5.8 0 0 1-2.5-2.5 8.3 8.3 0 0 1-1.1-5.5A3.9 3.9 0 0 1 14.2.5l.4-.3zM7 2.6l1.2.2a4.6 4.6 0 0 1 2.4 1.8 8.4 8.4 0 0 1 1.6 6.3 4.3 4.3 0 0 1-.9 2.1 2.6 2.6 0 0 1-3.3.7 5.7 5.7 0 0 1-2.5-2.4 8.3 8.3 0 0 1-1-5.6 3.9 3.9 0 0 1 1.3-2.6l.4-.3zm20 6a6.7 6.7 0 0 1-1.4 6.2 2.3 2.3 0 0 1-2.3.8 2.4 2.4 0 0 1-1.6-1.4 6.4 6.4 0 0 1-.2-5.2 4.8 4.8 0 0 1 1.3-2 2.3 2.3 0 0 1 3.8.6zm-25.5 8a4.5 4.5 0 0 1-.2-1.9 2.1 2.1 0 0 1 2.3-2 4.7 4.7 0 0 1 2.7 1 6.7 6.7 0 0 1 2.6 3.6 4.3 4.3 0 0 1 .1 1.3 2.2 2.2 0 0 1-2.6 2.2 5.2 5.2 0 0 1-2.7-1.2 6.8 6.8 0 0 1-2.2-3zM19 29.4c0 1.6-1.2 2.6-3.6 2.6h-3.2a.3.3 0 0 1 0-.3h.2c.7-.1.8-.3.8-1.7v-.6l1.1-.3v.7a2.7 2.7 0 0 0 .3 1.5 1.3 1.3 0 0 0 1.1.4c1.2 0 2.1-.5 2.1-1.9a2.1 2.1 0 0 0-1.6-2.2h.1a4.4 4.4 0 0 1 1.4-1l-.7.4c0 .1.1.2.3.2a2.3 2.3 0 0 1 1.7 2.2z"/><path fill="#fff" d="M14.3 27.7V29h.1l1-.6.9-.8h-1.2c-.8-.3-.8-.2-.8.1z"/><path fill="#fff" d="M26.7 22.9h.8a2.9 2.9 0 0 0 0-.4 3.3 3.3 0 0 0-1.1-2.2 38.5 38.5 0 0 0-6.3-5 5 5 0 0 0-2.3-.9 6.6 6.6 0 0 0-3.4.7 4.6 4.6 0 0 0-2.1 1.9 17.9 17.9 0 0 0-1 2 39 39 0 0 0-1.7 5.6 9.1 9.1 0 0 0-.3 1.9 2.7 2.7 0 0 0 2.9 2.9h1v-4.7c0-1-.1-1.3-.7-1.3H12a.2.2 0 0 1 0-.3h3a5.2 5.2 0 0 1 2.3.4 1.8 1.8 0 0 1 1 1.7 1.7 1.7 0 0 1-.7 1.4l.4-.2a7.5 7.5 0 0 1 2.5-.6h.9V25c0-1.4-.1-1.7-.8-1.7h-.4c-.1-.1-.1-.3 0-.3h3.3c.1 0 .1.3 0 .3h-.3c-.8.1-.8.3-.8 1.7v.9h1.7l1.2-.4.7-.4a2.7 2.7 0 0 0 1.3-1.7h-.8c.1-.2.2-.5.2-.5z"/><path fill="#fff" d="M15.1 23.3h-.6c-.1 0-.2.1-.2.4v2.8c0 .4 0 .4.7.4s2.1-.5 2.1-1.7a1.8 1.8 0 0 0-2-1.9zM30 32h-3.3a.3.3 0 0 1 0-.3h.3c.8-.1.8-.3.8-1.7v-2c0-.4 0-.4-.7-.4h-3.9c-.7 0-.7 0-.7.4v1.9c0 1.4.1 1.6.8 1.7h.4c.1.1.1.3 0 .3h-3.3a.3.3 0 0 1 0-.3h.2c.8-.1.8-.3.8-1.7v-4.2h1.1v.7c0 .4 0 .4.7.4h3.9c.7 0 .7 0 .7-.4V25c0-1 0-1.4-.3-1.6a2.6 2.6 0 0 0 .1-.5H30c.1 0 .1.3 0 .3h-.3c-.8.1-.8.3-.8 1.7v4.9c0 1.4 0 1.6.8 1.7h.3c.2.2.1.5 0 .5z"/></symbol><symbol id="64" viewBox="0 0 64 64"><path fill="#fff" d="M31.5 0a7.1 7.1 0 0 1 4.3 1.2 12.4 12.4 0 0 1 3.9 4.3 16.7 16.7 0 0 1 2.2 11.1 8.9 8.9 0 0 1-1.5 3.9 5.2 5.2 0 0 1-6.8 1.7 11.5 11.5 0 0 1-5-5 16.5 16.5 0 0 1-2.2-11A7.8 7.8 0 0 1 29.3 1l.7-.5zM14.9 5.1a15.5 15.5 0 0 1 2.5.4 9.2 9.2 0 0 1 4.7 3.7 16.7 16.7 0 0 1 3.2 12.5 8.6 8.6 0 0 1-1.8 4.3 5.2 5.2 0 0 1-6.5 1.2 11.3 11.3 0 0 1-4.9-4.8 16.5 16.5 0 0 1-2.3-11.1 7.8 7.8 0 0 1 2.8-5.2l.8-.6zm39.9 12c.9 4.5.4 8.8-2.8 12.3a4.6 4.6 0 0 1-4.7 1.7 4.9 4.9 0 0 1-3.2-2.8 12.8 12.8 0 0 1-.3-10.3 9.6 9.6 0 0 1 2.6-4.1c2.6-2.4 5.8-1.9 7.5 1.2.3.7.6 1.4.9 2zm-50.9 16a9 9 0 0 1-.5-3.7 4.3 4.3 0 0 1 4.5-4 9.3 9.3 0 0 1 5.4 2 13.4 13.4 0 0 1 5.2 7.2 8.6 8.6 0 0 1 .3 2.7 4.4 4.4 0 0 1-5.2 4.4 10.4 10.4 0 0 1-5.3-2.4 13.6 13.6 0 0 1-4.4-6.2zm34.9 25.4c0 3.2-2.3 5.3-7.2 5.3h-6.4a.5.5 0 0 1-.1-.7h.5c1.4-.2 1.5-.5 1.5-3.4v-1.3l2.2-.7v1.5a5.3 5.3 0 0 0 .6 3 2.6 2.6 0 0 0 2.2.8c2.4 0 4.3-1.1 4.3-3.8a4.2 4.2 0 0 0-3.1-4.4h.1a8.8 8.8 0 0 1 2.8-2l-1.5.9c0 .3.2.4.5.4a4.5 4.5 0 0 1 3.6 4.4z"/><path fill="#fff" d="M29.4 55.2v2.6h.2l1.9-1.2 1.8-1.7a8.1 8.1 0 0 0-2.3-.3c-1.5-.1-1.6 0-1.6.6z"/><path fill="#fff" d="M54.2 45.6h1.7a5.9 5.9 0 0 0 0-.7 6.7 6.7 0 0 0-2.1-4.3 76.7 76.7 0 0 0-12.6-10 10 10 0 0 0-4.7-1.8 13.2 13.2 0 0 0-6.7 1.3 9.3 9.3 0 0 0-4.3 3.7 35.7 35.7 0 0 0-1.9 4.1A77.7 77.7 0 0 0 20.1 49a18.1 18.1 0 0 0-.6 3.8 5.5 5.5 0 0 0 5.7 5.8l1.8-.2h.1v-9.1c0-2-.1-2.5-1.3-2.6h-.9a.4.4 0 0 1 0-.7l5.9-.2a10.4 10.4 0 0 1 4.6.8 3.6 3.6 0 0 1 2.1 3.4 3.4 3.4 0 0 1-1.3 2.8l.9-.4a14.9 14.9 0 0 1 4.9-1.2h1.7v-1.4c0-2.9-.2-3.3-1.6-3.4h-.7c-.2-.1-.1-.6.1-.7h6.6c.2.1.2.6.1.7h-.5c-1.6.2-1.6.6-1.6 3.4v1.8a9.4 9.4 0 0 0 3.1 0h.4l2.4-.7 1.4-.8a5.5 5.5 0 0 0 2.7-3.5l-1.1-.3h-.5c-.5-.1-.4-.6-.3-.7z"/><path fill="#fff" d="M31 46.5l-1.3.2c-.3.1-.4.2-.4.7v5.5c0 .8 0 .8 1.4.8s4.3-.9 4.3-3.5-1.9-3.7-4-3.7zm29.8 17.3h-6.6a.5.5 0 0 1-.1-.7h.5c1.7-.3 1.7-.5 1.7-3.4v-3.9c0-.8-.1-.9-1.4-.9h-7.7c-1.3 0-1.4.1-1.4.9v3.8c0 2.9.1 3.2 1.7 3.4h.8c.2.1.1.6-.1.7h-6.6a.5.5 0 0 1-.1-.7h.5c1.5-.3 1.6-.5 1.6-3.4v-8.4l1 .2 1.2.2v1.3c0 .8.1.9 1.4.9H55c1.3 0 1.4 0 1.4-.9v-3.1c0-2 0-2.8-.6-3.2a5.3 5.3 0 0 0 .1-.9h4.8c.2.1.2.6.1.7h-.6c-1.6.2-1.6.6-1.6 3.4v9.8c0 2.9.1 3.2 1.6 3.4h.7c.1.2.1.7-.1.8z"/></symbol><symbol id="256" viewBox="0 0 256 256"><path fill="#fff" d="M125.3.9a28.5 28.5 0 0 1 17.1 4.7A49.6 49.6 0 0 1 158 22.7c7.9 13.8 11.3 28.5 8.9 44.4a35.4 35.4 0 0 1-6.1 15.5c-6.5 9.1-16.9 11.8-27.1 7s-15.3-11.4-20.1-19.9c-7.7-13.6-11.1-28.2-8.6-43.8 1.3-8.2 4.3-15.6 11.1-20.9l3-2.2zM58.8 21.3c3.3.4 6.8.5 10 1.4 8 2.5 14 8 18.8 14.6 10.8 15 15.3 31.6 12.7 50a34.3 34.3 0 0 1-7.2 17.1c-6.4 8-16.4 10.1-26.1 5.5s-14.9-11-19.6-19.2c-8-13.8-11.5-28.6-9-44.5 1.3-8.1 4.3-15.4 11-20.7l3.2-2.3zm159.5 48.1c3.7 18.1 1.7 35-11.1 49.4-4.8 5.4-11.1 8.5-18.6 6.7s-10.1-5.7-12.8-11c-6.9-13.6-6.2-27.5-1.5-41.5a38.5 38.5 0 0 1 10.4-16.4c10.5-9.5 23.2-7.4 30 5 1.4 2.5 2.4 5.1 3.6 7.8zM14.7 133.3c-1.8-5.9-2.5-10.3-2-14.8 1-10 8.1-16.3 18.2-16.2 8 .1 15 3.3 21.4 7.9 10.1 7.3 17.4 16.7 20.9 28.6a34.4 34.4 0 0 1 1.4 10.7c-.4 12.1-9 19.2-21 17.7-8.1-1-15.1-4.7-21.4-9.8-8.4-6.9-14.5-15.4-17.5-24.1zm139.8 101.6c0 12.6-9.4 21.1-29 21.1-3.2 0-8.5-.3-13.1-.3s-8.5.2-12.5.3c-.7-.3-.9-2.1-.2-2.7l2-.3c5.8-1 6-2.2 6-13.6v-4.8l8.9-2.7v5.9c0 3.9.2 9.5 2.3 11.9s5.3 3.1 8.6 3.1c9.7 0 17.1-4.4 17.1-15.2 0-6.8-2.7-14.5-12.5-17.4l.4-.4a35.4 35.4 0 0 1 11.2-8 26.6 26.6 0 0 1-5.8 3.5c0 1.1.9 1.4 2.1 1.6a18 18 0 0 1 14.5 18z"/><path fill="#fff" d="M116.6 221.6v10.2l.8-.3a80 80 0 0 0 7.6-4.9 69.8 69.8 0 0 0 7.1-6.7 32.2 32.2 0 0 0-9.2-1.2c-5.8.1-6.3.7-6.3 2.9z"/><path fill="#fff" d="M216 183.5l6.6.3a23.5 23.5 0 0 0 0-2.8c-.5-6.9-3.7-12.6-8.5-17.4a306.7 306.7 0 0 0-50.6-40.2c-5.7-3.6-11.7-6.6-18.7-7.1a52.7 52.7 0 0 0-26.8 5.2c-7.1 3.3-13.3 8-17.3 14.9a142.8 142.8 0 0 0-7.8 16.3C87.1 167 83 182 79.4 197a72.4 72.4 0 0 0-2.2 15.1c-.3 11.3 7.3 23.4 22.8 23.2 2.5 0 4.9-.4 7.4-.6h.4V198c0-8.1-.4-10.1-5.3-10.6l-3.5-.3a1.7 1.7 0 0 1 .1-2.7c5.9-.5 13.3-.9 23.4-.9 6.9 0 13.4.6 18.3 3.1s8.3 6.6 8.3 13.6a13.7 13.7 0 0 1-5.3 11.4l3.5-1.4c6.3-2.3 12.7-4.6 19.5-4.7a46.7 46.7 0 0 1 6.8.5v-5.7c0-11.4-.8-13.3-6.4-13.7l-2.8-.2c-.6-.4-.4-2.4.2-2.7 5.3.1 9 .3 13.7.3s8-.1 12.6-.3c.7.3.9 2.3.2 2.7l-2.1.2c-6.3.6-6.5 2.3-6.5 13.7v7.2a37.6 37.6 0 0 0 12.2.1h1.4l9.8-3c1.9-1 3.8-2 5.6-3.1 5.6-3.5 9.4-8 10.7-13.9a10.1 10.1 0 0 0-4.3-1.1l-2.1-.2c-.6-.5-.4-2.5.2-2.8z"/><path fill="#fff" d="M123.2 186.9a13.4 13.4 0 0 0-5 .7c-1.1.3-1.5.9-1.5 2.8v22.1c0 3 .1 3.3 5.7 3 11.1-.4 17.1-3.7 17.1-13.9s-8.1-14.7-16.3-14.7zM242.4 256c-5.2-.2-8.9-.3-13.2-.3s-8.4.1-13.2.3c-.7-.3-.9-2.1-.2-2.7l2.1-.3c6.6-1.1 6.6-2.2 6.6-13.6V224c0-3.3-.2-3.5-5.4-3.5h-31.2c-5.2 0-5.4.2-5.4 3.5v15.4c0 11.4.6 13 6.6 13.6l3.2.3c.7.4.4 2.4-.2 2.7l-13.8-.3c-4.7 0-8.4.2-12.6.3-.7-.3-.9-2.1-.2-2.7l1.9-.3c6.1-1.1 6.3-2.2 6.3-13.6v-33.5l4.1.7 4.8.8v5.3c0 3.4.2 3.5 5.4 3.5h31.1c5.2 0 5.4-.1 5.4-3.5v-12.6c0-8-.1-11.2-2.4-12.6a21.1 21.1 0 0 0 .5-3.8h6.6c4.2 0 8-.1 12.9-.3.7.3.9 2.3.2 2.7l-2.3.2c-6.3.6-6.5 2.3-6.5 13.7v39.2c0 11.4.2 12.9 6.5 13.6l2.6.3c.6.6.4 2.6-.2 2.9z"/></symbol></svg>