<svg xmlns="http://www.w3.org/2000/svg"><symbol id="logo-16" viewBox="0 0 16 16"><path fill="#231f20" d="M5.6 4.6a6.1 6.1 0 0 1-1.8-1.4 3.2 3.2 0 0 0-1.6-1.4l.4-.2A13.2 13.2 0 0 0 3.1 6a21.9 21.9 0 0 1 .4 2.3 14.2 14.2 0 0 1 .1 2.4 10.6 10.6 0 0 0 .1 1.3 2.2 2.2 0 0 0 .7 1.2 2.1 2.1 0 0 1-.9-1.1 6.1 6.1 0 0 1-.4-1.4 24.9 24.9 0 0 0-.8-4.5A11.1 11.1 0 0 1 2 1.5v-.4h.3a2.5 2.5 0 0 1 1 .8l.6 1a7.4 7.4 0 0 0 1.7 1.7zm2.4.3a10.7 10.7 0 0 0 2.9-1.7A21.2 21.2 0 0 0 13.2.8l.8-.9v1.2c-.2 1.7-.6 3.3-.8 5a7.4 7.4 0 0 0 .5 4.8 4.9 4.9 0 0 1-1.1-2.3 9.2 9.2 0 0 1-.2-2.6c.2-1.7.6-3.3.8-4.9l.6.3a14.1 14.1 0 0 1-2.6 2.3l-1.5.8zm-1.6 7.2h-.2v.2l-.2.4-.4.7-.4.8v.3H5c.3.2.8-.1 1.3-.4l.7-.5.7-.5a5.3 5.3 0 0 1-1.1 1.4l-.7.6a1.1 1.1 0 0 1-1.1 0 .6.6 0 0 1-.3-.6 1.7 1.7 0 0 1 .2-.5l.5-.8a3.6 3.6 0 0 1 1.2-1.1z"/><path fill="#231f20" d="M5.5 14.3a3.6 3.6 0 0 1 .5-.8l.7-.7a3.6 3.6 0 0 1-.5.8zm2-3l-.6-.5a1.4 1.4 0 0 1-.4-.7.5.5 0 0 1 .1-.4.5.5 0 0 1 .7 0 1.2 1.2 0 0 1 .4.6.6.6 0 0 1 .3-.6h.5a.4.4 0 0 1 .2.4v.3l-.8 1.1"/><circle cx="6" cy="7.4" r=".5" fill="#231f20"/><circle cx="5.8" cy="7.3" r=".3" fill="#fff" transform="rotate(-45 5.734 7.325)"/><ellipse cx="9.4" cy="7.4" fill="#231f20" rx=".4" ry=".5"/><path fill="#fff" d="M9.4 7.2a.3.3 0 0 1 0 .4.2.2 0 0 1-.3 0 .3.3 0 0 1 0-.4.2.2 0 0 1 .3 0z"/><path fill="#231f20" d="M8.5 14l.6-.3.6-.3 1.2-.6.9-.9a9.6 9.6 0 0 1 .8-1.1 5.5 5.5 0 0 1-.4 1.3 3.7 3.7 0 0 1-1 1 4.1 4.1 0 0 1-1.3.6 2.4 2.4 0 0 1-1.4.3z"/></symbol><symbol id="logo-64" viewBox="0 0 64 64"><path fill="#231f20" d="M10.4 11.7a12.7 12.7 0 0 1-4.1-3 20.5 20.5 0 0 0-1.5-1.9A4.2 4.2 0 0 0 3 5.7l1.1-.6a19.2 19.2 0 0 0 .1 4.8c.2 1.6.6 3.2.9 4.9a45.8 45.8 0 0 1 .9 5.1 28.5 28.5 0 0 1 .1 5.2 20.3 20.3 0 0 0 .3 3 4.9 4.9 0 0 0 1.4 2.6 4.6 4.6 0 0 1-2-2.4 14.9 14.9 0 0 1-.8-3 45.2 45.2 0 0 0-.6-4.9c-.4-1.9-.8-3.4-1.2-5.1a38.6 38.6 0 0 1-.9-5.1 17.5 17.5 0 0 1 .2-5.3l.2-1 .9.4a5.7 5.7 0 0 1 2.2 1.6 19.3 19.3 0 0 1 1.4 2.2 17.4 17.4 0 0 0 3.2 3.6zm5.4.7a24.2 24.2 0 0 0 3.3-1.7A25.4 25.4 0 0 0 22 8.5 35.2 35.2 0 0 0 24.6 6L27 3.3l2-2.2-.3 3c-.4 3.8-1.2 7.3-1.8 10.9a23.5 23.5 0 0 0-.4 5.3 13.2 13.2 0 0 0 1.3 5.2 10.5 10.5 0 0 1-2.4-5 18.8 18.8 0 0 1-.2-5.7c.4-3.7 1.2-7.3 1.6-10.8l1.7.7a37.6 37.6 0 0 1-2.7 2.7 26.7 26.7 0 0 1-3 2.3 19.3 19.3 0 0 1-3.4 1.8 14.7 14.7 0 0 1-3.6.9zM9.1 34.2c1.3 2.3 2.3 4.6 3.7 6.7a28 28 0 0 0 2.2 3 14.4 14.4 0 0 1 2.2 3.5 6 6 0 0 1 .1 4.5 10.5 10.5 0 0 1-1.1 1.8 3.3 3.3 0 0 0-.7 1.4 1 1 0 0 0 .3 1 4.4 4.4 0 0 0 1.6.4 3.7 3.7 0 0 0 1.7 0 1.7 1.7 0 0 0 1.2-1.2 1.9 1.9 0 0 1-1 1.7 4.1 4.1 0 0 1-2 .5h-1a3 3 0 0 1-1.2-.2 2 2 0 0 1-1-1 2.9 2.9 0 0 1-.2-1.3 3.7 3.7 0 0 1 .2-1.2l.5-1a9.2 9.2 0 0 0 .8-1.5 4.2 4.2 0 0 0-.2-3 13.8 13.8 0 0 0-1.9-3 20.9 20.9 0 0 1-2.1-3.4 29.4 29.4 0 0 1-2.1-7.7zm24.4 5.6a21.8 21.8 0 0 1-.1 8.8 24.3 24.3 0 0 1-3.4 8.2 6.6 6.6 0 0 1-4 2.9 3.9 3.9 0 0 1-2.7-.4 2.6 2.6 0 0 1-1.1-1.2 2.3 2.3 0 0 1 0-1.6 8 8 0 0 1 .5-1.1l.5-.9.8-1.9a40 40 0 0 0 1.3-4.1 19.7 19.7 0 0 1-.4 4.4c-.1.7-.3 1.4-.6 2.1l-.3 1a6.7 6.7 0 0 0-.3.9.6.6 0 0 0 .1.5l.4.4a2.1 2.1 0 0 0 1.5.1 4.8 4.8 0 0 0 2.7-2.2 30.9 30.9 0 0 0 3.5-7.5 38.7 38.7 0 0 0 1.6-8.4zm1.9 9.8c-.1 0-.1.1 0 .1h.2l.5-.2.8-.4 1.6-1 3.3-2a13.5 13.5 0 0 0 5.2-5.2 6 6 0 0 1-1.1 4 10.2 10.2 0 0 1-3.1 2.9 17.7 17.7 0 0 1-3.7 1.7l-2 .6h-1.6l-.3-.2c-.1-.2.1-.4.2-.3zm-4.7-21.2c3.5 1.4 7.1 1 10.8.7h4.3a5.2 5.2 0 0 1 1.6.3 4.2 4.2 0 0 1 2.2 2.3 8.8 8.8 0 0 1 .6 2.8 18.2 18.2 0 0 0-1.5-2.3 3.4 3.4 0 0 0-1.9-1.3 10.8 10.8 0 0 0-2.5 0l-2.8.2a23.1 23.1 0 0 1-5.7-.2 9.1 9.1 0 0 1-5.1-2.5z"/><path fill="#231f20" d="M47.9 30.4a14.8 14.8 0 0 0 .4-2.3 7.3 7.3 0 0 1 .3-1.6 6.3 6.3 0 0 1 .8-1.8l1.5-2a3.3 3.3 0 0 1 1.6 2.4 5.3 5.3 0 0 1-.1 2.5 4.6 4.6 0 0 1-1.6 2.3 3.1 3.1 0 0 1-2.9.5zM15 38.1a8.6 8.6 0 0 0 5 .1 21.6 21.6 0 0 0 4.6-1.9 27.9 27.9 0 0 0 4.2-2.7 42.5 42.5 0 0 0 3.8-3.5 12.9 12.9 0 0 1-2.8 4.6 15.7 15.7 0 0 1-4.3 3.4 13.9 13.9 0 0 1-5.3 1.6 6.5 6.5 0 0 1-5.2-1.6z"/><path fill="#231f20" d="M30.3 32.8a6.6 6.6 0 0 0 4.2 3.7 18.2 18.2 0 0 0 5.7.6l6.1.2a47.9 47.9 0 0 1 6.1.8 47.8 47.8 0 0 1-6.1.8l-6.2.2a14 14 0 0 1-6.3-1.1 7.3 7.3 0 0 1-2.5-2.1 4.8 4.8 0 0 1-1-3.1zm30.6 9a6.4 6.4 0 0 0-4.2-2.6 5.8 5.8 0 0 0-4.4 1.2 2.1 2.1 0 0 0-.6.7 4 4 0 0 0-.3 1 7.1 7.1 0 0 0 2 6.3 6.6 6.6 0 0 0 4 1.9 2.6 2.6 0 0 0 1.9-.5 4 4 0 0 0 1.2-1.7 9.2 9.2 0 0 0 .4-2.4 21 21 0 0 0 .1-2.5 3.6 3.6 0 0 0-.8-2.2 12.7 12.7 0 0 0-1.9-1.8 9.9 9.9 0 0 1 2.3 1.4 4.3 4.3 0 0 1 1.4 2.5 20.5 20.5 0 0 1 .2 2.7 9.7 9.7 0 0 1-.3 2.8 5.2 5.2 0 0 1-1.6 2.6 4.5 4.5 0 0 1-3 1A8.4 8.4 0 0 1 52 50a8.5 8.5 0 0 1-2.4-8.1 5.2 5.2 0 0 1 .5-1.5 3.8 3.8 0 0 1 1.1-1.2 6.7 6.7 0 0 1 5.6-.9 6.2 6.2 0 0 1 4.1 3.5z"/><path fill="none" stroke="#231f20" stroke-miterlimit="10" stroke-width=".75" d="M52.1 39.7l8 8m-.7-7.6l-5.9 8.6m3.4-9.9L56 51.1m-5.6-7l11.2.7"/><path fill="#231f20" d="M12.1 28.3c-.1-.1-.2.1-.3.2l-.3.4-.6.8-1 1.6L9 33a3.7 3.7 0 0 0-.3.8c0 .2.1.3.3.5a1.5 1.5 0 0 0 1.5 0 7.8 7.8 0 0 0 1.5-1l1.6-1.3a6.6 6.6 0 0 0 1.4-1.2 5.5 5.5 0 0 1-1.2 1.5l-1.4 1.3a6.6 6.6 0 0 1-1.6 1.2 2.2 2.2 0 0 1-2.2-.1l-.4-.5a1.1 1.1 0 0 1-.1-.7 3.6 3.6 0 0 1 .4-1 13.2 13.2 0 0 1 1-1.7l1.2-1.5.7-.7.4-.3.2-.2c0 .1.2.1.1.2z"/><path fill="#231f20" d="M10.1 33.1a5.6 5.6 0 0 1 1-1.9 5.5 5.5 0 0 1 1.6-1.5 5.5 5.5 0 0 1-1 1.9 5.6 5.6 0 0 1-1.6 1.5zm4.5-6.7l-1.3-1.1a3.1 3.1 0 0 1-.8-1.5 1.2 1.2 0 0 1 .2-.9 1.1 1.1 0 0 1 1.4 0 2.7 2.7 0 0 1 .8 1.4 1.3 1.3 0 0 1 .6-1.2 1.1 1.1 0 0 1 1-.1.8.8 0 0 1 .5.8 1.4 1.4 0 0 1-.3.6l-1.8 2.4"/><circle cx="11.2" cy="17.8" r="1.1" fill="#231f20"/><circle cx="10.8" cy="17.8" r=".6" fill="#fff" transform="rotate(-45 10.751 17.747)"/><ellipse cx="18.9" cy="17.8" fill="#231f20" rx=".9" ry="1.1"/><path fill="#fff" d="M18.9 17.4a.7.7 0 0 1 0 .8.4.4 0 0 1-.7 0 .7.7 0 0 1 0-.8.4.4 0 0 1 .7 0z"/><path fill="#231f20" d="M16.9 32.3l1.4-.6 1.4-.6 1.3-.5 1.2-.7a9.4 9.4 0 0 0 2-1.9l.8-1.2a4.9 4.9 0 0 1 .9-1.2l-.4 1.4a4.7 4.7 0 0 1-.6 1.5 8.1 8.1 0 0 1-2.2 2.2l-1.4.8-1.5.5-1.5.4z"/></symbol><symbol id="logo-32" viewBox="0 0 32 32"><path fill="#231f20" d="M5.2 6.2a6.7 6.7 0 0 1-2-1.5 3.5 3.5 0 0 0-1.7-1.6l.4-.2a14.3 14.3 0 0 0 .5 4.9 24.4 24.4 0 0 1 .5 2.5 15.6 15.6 0 0 1 .1 2.6 11.2 11.2 0 0 0 .2 1.5 2.4 2.4 0 0 0 .7 1.3 2.3 2.3 0 0 1-1-1.2 6.8 6.8 0 0 1-.4-1.5 26.6 26.6 0 0 0-.8-4.9 12.2 12.2 0 0 1-.4-5.2v-.5h.3a2.7 2.7 0 0 1 1.1.8l.7 1a8 8 0 0 0 1.8 2zm2.7.3A11.4 11.4 0 0 0 11 4.7a22.6 22.6 0 0 0 2.6-2.6l.7-.9v1.2c-.2 1.9-.6 3.6-.9 5.4A8 8 0 0 0 14 13a5.4 5.4 0 0 1-1.1-2.5 10 10 0 0 1-.1-2.8c.2-1.8.6-3.6.8-5.4l.6.3a15.6 15.6 0 0 1-2.8 2.5L9.6 6zM4.5 17.4c.6 1.2 1.1 2.3 1.7 3.4s1.7 1.9 2.2 3.2a2.9 2.9 0 0 1 .1 2.1c-.3.7-.8 1.1-.9 1.6a.6.6 0 0 0 .2.6l.8.2h.9a.9.9 0 0 0 .6-.7.9.9 0 0 1-.5.8 2 2 0 0 1-1 .2 2.5 2.5 0 0 1-1-.1 1.1 1.1 0 0 1-.6-1c0-.8.6-1.3.8-1.8a2.2 2.2 0 0 0-.1-1.6c-.4-1.1-1.4-2-2-3.2a16.4 16.4 0 0 1-1.2-3.7zm12.2 2.8a11.6 11.6 0 0 1-.2 4.3 12.2 12.2 0 0 1-1.7 4.1 3.2 3.2 0 0 1-1.9 1.4 1.8 1.8 0 0 1-1.3-.2 1.2 1.2 0 0 1-.5-.5 1 1 0 0 1 0-.7 18.5 18.5 0 0 0 1.5-4 11.1 11.1 0 0 1-.3 2.2 19.8 19.8 0 0 1-.6 2c-.1.5.5.8 1.1.6a2.5 2.5 0 0 0 1.4-1.2 15.1 15.1 0 0 0 1.8-3.9 17.3 17.3 0 0 0 .7-4.1zm.9 4.8c-.1 0 0 .1.1.1h.2l.4-.2.8-.5 1.7-1a6 6 0 0 0 2.5-2.7 3.2 3.2 0 0 1-.6 1.9 5.4 5.4 0 0 1-1.5 1.4l-1.8.9-1 .3h-.9c0-.1 0-.2.1-.2zm-2.3-10.5a6.6 6.6 0 0 0 2.6.6H22a4.5 4.5 0 0 1 1.5.2 2 2 0 0 1 1.1 1.1 5 5 0 0 1 .4 1.4c-.4-.8-.9-1.7-1.6-1.9h-2.7a12.5 12.5 0 0 1-2.8 0 4.7 4.7 0 0 1-2.6-1.4z"/><path fill="#231f20" d="M23.8 15.5a4.4 4.4 0 0 0 .9-1.8l.3-1a6.3 6.3 0 0 0 .3-1 1.8 1.8 0 0 1 .3 1.1 4.3 4.3 0 0 1-.2 1.1 2.6 2.6 0 0 1-.6 1.1 1.7 1.7 0 0 1-1 .5zM7.4 19.3a4.1 4.1 0 0 0 2.5.1 9.8 9.8 0 0 0 2.3-.9 13.8 13.8 0 0 0 3.9-3.2 7.8 7.8 0 0 1-3.6 3.9 7.2 7.2 0 0 1-2.5.8 3.3 3.3 0 0 1-2.6-.7z"/><path fill="#231f20" d="M15.1 16.7a3.2 3.2 0 0 0 2 2 8.5 8.5 0 0 0 2.9.3 44.3 44.3 0 0 1 6.1.4 43.6 43.6 0 0 1-6.1.4 7.1 7.1 0 0 1-3.1-.6 3 3 0 0 1-1.8-2.5zm15.2 4.5a3 3 0 0 0-4.3-.8 1.4 1.4 0 0 0-.5.9 3.6 3.6 0 0 0 1 3.2 3.4 3.4 0 0 0 2.1 1 1.6 1.6 0 0 0 1.6-1.2 7.7 7.7 0 0 0 .2-2.5c0-.8-.7-1.5-1.4-2l1.1.7a2.1 2.1 0 0 1 .7 1.2 9.9 9.9 0 0 1 .1 1.3 5 5 0 0 1-.1 1.4 2.5 2.5 0 0 1-.8 1.3 2.1 2.1 0 0 1-1.4.5 4.1 4.1 0 0 1-2.6-1 4.1 4.1 0 0 1-1.2-3.9 2.5 2.5 0 0 1 .3-.7l.5-.6a3.3 3.3 0 0 1 2.7-.5 3.1 3.1 0 0 1 2 1.7z"/><path fill="none" stroke="#231f20" stroke-miterlimit="10" stroke-width=".5" d="M25.9 20.1l4.6 4.3m-.9-4.1L26.4 25m1.9-5.3l-.4 6.1m-2.8-3.5l5.6.4"/><path fill="#231f20" d="M6 14.4h-.1v.2l-.3.4-.5.8-.4.8v.5a.7.7 0 0 0 .7 0l.7-.5.8-.6.7-.6a6 6 0 0 1-1.3 1.5l-.8.6a1.2 1.2 0 0 1-1.2 0 .7.7 0 0 1-.3-.6 1.8 1.8 0 0 1 .2-.5l.5-.8.6-.8.4-.3.2-.2H6z"/><path fill="#231f20" d="M5 16.8a4.3 4.3 0 0 1 .5-.9l.7-.8a4.3 4.3 0 0 1-.5.9zm2.3-3.3l-.7-.5a1.5 1.5 0 0 1-.4-.8.6.6 0 0 1 .1-.5.5.5 0 0 1 .7 0 1.3 1.3 0 0 1 .4.7.7.7 0 0 1 .3-.6h.5a.4.4 0 0 1 .3.4v.3l-.9 1.2"/><circle cx="5.6" cy="9.2" r=".6" fill="#231f20"/><circle cx="5.4" cy="9.2" r=".3" fill="#fff" transform="rotate(-45 5.396 9.165)"/><ellipse cx="9.4" cy="9.2" fill="#231f20" rx=".5" ry=".6"/><path fill="#fff" d="M9.4 9a.3.3 0 0 1 0 .4.2.2 0 0 1-.3 0A.3.3 0 0 1 9 9a.2.2 0 0 1 .4 0z"/><path fill="#231f20" d="M8.4 16.5l.7-.3.7-.3 1.3-.6 1-.9a11.6 11.6 0 0 1 .9-1.2 6.4 6.4 0 0 1-.5 1.4 4 4 0 0 1-1.1 1.1 4.4 4.4 0 0 1-1.4.6 2.7 2.7 0 0 1-1.6.2z"/></symbol><symbol id="logo-256" viewBox="0 0 256 256"><path fill="#231f20" d="M40.8 48a79.5 79.5 0 0 1-8.5-5.4 40.2 40.2 0 0 1-7.5-7 90.7 90.7 0 0 0-6.2-7.5 18 18 0 0 0-7.4-4.7l3.3-1.9a76.3 76.3 0 0 0 .2 19.6c.8 6.6 2.2 13.2 3.7 19.8.7 3.3 1.5 6.7 2.1 10.1s1.2 6.8 1.6 10.3a120.3 120.3 0 0 1 .8 20.8v-.2a74.9 74.9 0 0 0 1.4 12 23.5 23.5 0 0 0 2.1 5.6 18 18 0 0 0 3.7 4.8 16.2 16.2 0 0 1-4.7-4.1 22.2 22.2 0 0 1-3.1-5.6 62.1 62.1 0 0 1-3-12.2v-.4A166.7 166.7 0 0 0 17 82c-.6-3.3-1.2-6.6-2-9.9s-1.6-6.6-2.3-9.9a166.4 166.4 0 0 1-3.8-20.4 70.3 70.3 0 0 1 .7-21.1l.6-3 2.7 1.1a21.5 21.5 0 0 1 4.9 2.7 23.7 23.7 0 0 1 3.9 3.8 75.4 75.4 0 0 1 5.6 8.5 41 41 0 0 0 6.1 7.5c2.3 2.3 4.8 4.5 7.4 6.7zm21.5 2.7a90.3 90.3 0 0 0 13.3-6.5 100.8 100.8 0 0 0 11.9-8.5 138.9 138.9 0 0 0 10.8-9.9c3.4-3.5 6.7-7.1 9.9-10.8l5.9-6.8-.8 9c-.7 7.5-2 14.8-3.3 22.1s-2.8 14.4-4 21.6a90.9 90.9 0 0 0-1.2 21.5 50.9 50.9 0 0 0 5.8 20.8 37.9 37.9 0 0 1-5.9-9.5 51.3 51.3 0 0 1-3.3-10.8 77.2 77.2 0 0 1-.6-22.6c.8-7.4 2.1-14.7 3.3-22s2.5-14.5 3.4-21.6l5.1 2.2c-3.4 3.7-6.9 7.3-10.7 10.7A107.9 107.9 0 0 1 90 39.1a77.6 77.6 0 0 1-13.3 7.3 61.8 61.8 0 0 1-14.4 4.3zm-27.1 87.6c4.7 9.3 8.8 18.8 14.1 27.3 1.3 2.1 2.7 4.2 4.2 6.2s3.1 4 4.7 6c3.2 4 6.6 8.4 8.8 13.7a27.8 27.8 0 0 1 2 8.4 19.8 19.8 0 0 1-1.4 8.9 40.2 40.2 0 0 1-4.3 7 22.6 22.6 0 0 0-1.8 3 9.3 9.3 0 0 0-.9 2.9 6.6 6.6 0 0 0 .2 2.8 3.7 3.7 0 0 0 1.4 1.9 8.1 8.1 0 0 0 3 1l3.7.6a14.7 14.7 0 0 0 7.1-.4 7.1 7.1 0 0 0 4.7-5.2 6.2 6.2 0 0 1-1 3.8 9.4 9.4 0 0 1-3 2.9 16.2 16.2 0 0 1-8 1.9h-4a11.4 11.4 0 0 1-4.5-1 7.7 7.7 0 0 1-3.6-3.7 10.5 10.5 0 0 1-.9-4.8 14.1 14.1 0 0 1 .9-4.6 26.2 26.2 0 0 1 2-3.8 41.5 41.5 0 0 0 3.5-6.3c1.5-3.9.9-8.6-.8-12.9a35.3 35.3 0 0 0-3.3-6.3c-1.3-2.1-2.8-4.1-4.3-6.2a85.6 85.6 0 0 1-8.5-13.4c-4.8-9.5-7.7-19.6-10-29.7zm98.2 22.5a93.1 93.1 0 0 1-1.3 35 101.7 101.7 0 0 1-5.4 16.9c-.6 1.4-1.2 2.7-1.8 4.1l-2 4c-1.4 2.6-2.8 5.2-4.6 7.7a33.7 33.7 0 0 1-6.3 7.1 21.2 21.2 0 0 1-8.9 4.4 16.8 16.8 0 0 1-5.2.3 13.5 13.5 0 0 1-2.7-.6 12.1 12.1 0 0 1-2.5-1.2 9.6 9.6 0 0 1-3.9-4.3 7.9 7.9 0 0 1-.6-3.1 9.8 9.8 0 0 1 .5-2.8 30.7 30.7 0 0 1 1.9-4.3l1.8-3.9c1.2-2.6 2.2-5.2 3.2-7.9a142.7 142.7 0 0 0 4.9-16.6 84.2 84.2 0 0 1-2.1 17.4q-1 4.3-2.3 8.5-.7 2.1-1.5 4.2a32.4 32.4 0 0 0-1.3 3.8 3.5 3.5 0 0 0 .2 2.6 4.6 4.6 0 0 0 2 1.8l1.5.6 1.6.3a11.3 11.3 0 0 0 3.4-.3c4.7-1.1 8.5-4.8 11.5-9.3l2.2-3.5 2.1-3.7 2-3.7 1.8-3.8a126.7 126.7 0 0 0 6-15.8 140.2 140.2 0 0 0 5.8-33.9zm7.4 39.4c-.4 0-.3.5-.2.6a1 1 0 0 0 .7 0l1.9-.5a23.6 23.6 0 0 0 3.5-1.5c2.2-1.1 4.4-2.6 6.7-3.9 4.5-2.7 9.1-5.2 13.3-7.9a67.7 67.7 0 0 0 11.8-9.2 46.9 46.9 0 0 0 4.8-5.8 42.8 42.8 0 0 0 3.8-6.8 22.1 22.1 0 0 1-1.2 8.1 31 31 0 0 1-3.8 7.5A42.8 42.8 0 0 1 170 192a80.8 80.8 0 0 1-14.5 7.1 49.3 49.3 0 0 1-7.8 2.4 17.3 17.3 0 0 1-4.2.3l-2.1-.3a1.5 1.5 0 0 1-1.1-.6.6.6 0 0 1 0-.7c.1 0 .4-.2.5 0zm-18.8-85a53.7 53.7 0 0 0 21.3 4.8c7.2.3 14.5-.4 22-.9 3.7-.3 7.5-.5 11.4-.5l5.8.2a21.8 21.8 0 0 1 6.2 1.2 15 15 0 0 1 5.4 3.6 19 19 0 0 1 3.4 5.1 38.1 38.1 0 0 1 3 11.1 65.8 65.8 0 0 0-5.5-9.6 18.2 18.2 0 0 0-3.5-3.7 11.9 11.9 0 0 0-4.2-2 20.1 20.1 0 0 0-4.9-.4l-5.4.2-11.1.8c-7.5.5-15.2.9-22.9-.4a48.1 48.1 0 0 1-11.2-3.2 40.7 40.7 0 0 1-5.1-2.7 29.5 29.5 0 0 1-4.7-3.6z"/><path fill="#231f20" d="M191.2 123.3a37.2 37.2 0 0 0 4.7-7.1 46.8 46.8 0 0 0 2.7-7.5l1.2-4.1 1.3-4a51.4 51.4 0 0 0 2-8.4c2 2.5 2.6 6 2.6 9.1a30 30 0 0 1-.4 4.6 36.3 36.3 0 0 1-1 4.5 20.9 20.9 0 0 1-4.6 8.5 13.7 13.7 0 0 1-8.5 4.4zM59 154.2c6.7 2.8 13.5 2.5 20.1 1a63.2 63.2 0 0 0 9.6-3.1l2.4-1 2.3-1.1 2.3-1.1 2.3-1.2a89.2 89.2 0 0 0 8.7-5.2 97.7 97.7 0 0 0 8.2-6.1c2.6-2.2 5.2-4.5 7.7-7s4.8-5.1 7.2-7.7a56.9 56.9 0 0 1-11.7 18.1 63.6 63.6 0 0 1-8.1 7.3c-1.4 1.1-3 2.1-4.5 3.2l-4.7 2.8a65.5 65.5 0 0 1-10.1 4.3 49 49 0 0 1-10.8 2.4 33.8 33.8 0 0 1-11.1-.7 21.7 21.7 0 0 1-9.8-4.9z"/><path fill="#231f20" d="M120.4 132.8a22.4 22.4 0 0 0 6.5 9.9 30.6 30.6 0 0 0 9.9 5.9c7.2 2.6 15.2 2.9 23.3 2.9s16.4.2 24.7.6 16.5 1.1 24.7 2.3c-8.2 1.3-16.5 1.9-24.7 2.4s-16.4.7-24.7.7a87.8 87.8 0 0 1-12.7-.8 42.9 42.9 0 0 1-12.5-3.7 29.3 29.3 0 0 1-10.2-8.2 19.8 19.8 0 0 1-4.3-12zm122.9 36.3a25.5 25.5 0 0 0-16.7-10.8 23.9 23.9 0 0 0-18.3 4.6 9.4 9.4 0 0 0-2.7 3.2 16.3 16.3 0 0 0-1.3 4.3 28.3 28.3 0 0 0-.2 9.6 29.5 29.5 0 0 0 2.8 9.1 27.6 27.6 0 0 0 5.7 7.6 28.9 28.9 0 0 0 7.8 5.4 24.7 24.7 0 0 0 9 2.4 11.5 11.5 0 0 0 8-2.3 16.6 16.6 0 0 0 5-7.4 37.4 37.4 0 0 0 1.7-9.8c.1-1.7.2-3.5.3-5.2a40.9 40.9 0 0 0 0-5.1 15.2 15.2 0 0 0-1-4.7 17.2 17.2 0 0 0-2.6-4.2 50 50 0 0 0-7.7-7 40.7 40.7 0 0 1 8.9 5.8 17.4 17.4 0 0 1 3.5 4.4 17.8 17.8 0 0 1 1.9 5.3 40.6 40.6 0 0 1 .5 5.4c.1 1.8.2 3.5.2 5.3a38.8 38.8 0 0 1-1.2 11 20.3 20.3 0 0 1-6.1 10.1 15.6 15.6 0 0 1-5.5 3.1 19.1 19.1 0 0 1-6.1.8 29.4 29.4 0 0 1-11.3-2.7 34.5 34.5 0 0 1-9.5-6.4 33.4 33.4 0 0 1-9.3-31.6 20 20 0 0 1 2-5.6 14.3 14.3 0 0 1 4.3-4.5 26.5 26.5 0 0 1 21.7-3.8 24.9 24.9 0 0 1 16.2 13.7z"/><path fill="none" stroke="#231f20" stroke-miterlimit="10" stroke-width=".75" d="M207.9 160.4l32.2 32.3m-2.6-30.6l-23.7 34.4m13.7-39.5l-3.7 49.5M201.1 178l45.1 3.1"/><path fill="#231f20" d="M47.6 114.6a.1.1 0 0 0-.1-.2h-.2l-.4.3-.6.7-1.3 1.5-2.4 3a73.7 73.7 0 0 0-4.3 6.3 71.9 71.9 0 0 0-3.6 6.7 14.7 14.7 0 0 0-1.3 3.4 2.2 2.2 0 0 0 .2 1.4 3.4 3.4 0 0 0 1.1 1.2 5.4 5.4 0 0 0 3.2 1 8.3 8.3 0 0 0 3.4-.8c2.2-1 4.1-2.7 6.1-4.4l6-4.9a25.2 25.2 0 0 0 5.5-5.3c-1.2 2.3-3.2 4.1-5 5.9l-5.7 5.2a28.3 28.3 0 0 1-6.3 4.8 9.5 9.5 0 0 1-4 1 6.9 6.9 0 0 1-4.1-1.2 4.9 4.9 0 0 1-1.5-1.7 3.7 3.7 0 0 1-.4-2.3 7.7 7.7 0 0 1 .6-2l.8-1.8a60.7 60.7 0 0 1 3.9-6.8 58.5 58.5 0 0 1 4.7-6.2l2.7-2.8 1.4-1.3.7-.6.4-.2h.2a.1.1 0 0 1 .3.1z"/><path fill="#231f20" d="M39.4 134.1c.7-1.2 1.5-2.4 2.4-3.6l2.5-3.4 2.7-3.3 2.8-3.2c-.7 1.2-1.5 2.4-2.4 3.6l-2.5 3.4-2.7 3.3zm18.2-26.9a36.7 36.7 0 0 1-5.4-4.5 12.3 12.3 0 0 1-3.3-6.2 4.8 4.8 0 0 1 .7-3.8c1.3-1.7 4.1-1.5 5.8-.2s2.5 3.5 3.1 5.5a5.3 5.3 0 0 1 2.4-4.9 4.4 4.4 0 0 1 4-.5 3.4 3.4 0 0 1 2.1 3.3 5.7 5.7 0 0 1-1.1 2.5 114.9 114.9 0 0 1-7.2 9.7"/><circle cx="43.9" cy="72.7" r="4.6" fill="#231f20"/><circle cx="42.2" cy="72.4" r="2.3" fill="#fff" transform="rotate(-45 42.283 72.386)"/><ellipse cx="74.5" cy="72.7" fill="#231f20" rx="3.8" ry="4.6"/><path fill="#fff" d="M74.5 70.8a2.7 2.7 0 0 1 0 3.3 1.7 1.7 0 0 1-2.7 0 2.7 2.7 0 0 1 0-3.3 1.7 1.7 0 0 1 2.7 0z"/><path fill="#231f20" d="M66.6 130.9c1.9-.7 3.9-1.2 5.7-1.9l2.7-1.2 1.4-.6.7-.3.8-.3 2.8-.9 2.6-1.1a41.5 41.5 0 0 0 5-2.9 37.5 37.5 0 0 0 8.4-7.7l1.6-2.3 1.4-2.5a21.5 21.5 0 0 1 3.5-5c-.7 1.9-1.3 3.8-1.9 5.7a20.1 20.1 0 0 1-2.5 5.7 25 25 0 0 1-4.1 4.8 37.1 37.1 0 0 1-4.9 3.9 45.8 45.8 0 0 1-5.4 3l-2.9 1.2-2.9.9-2.8.9-3 .7a24.1 24.1 0 0 1-6.2-.1z"/></symbol></svg>