<svg xmlns="http://www.w3.org/2000/svg"><symbol id="16" viewBox="0 0 16 16"><path d="M5.6 15.3h-.5a1.5 1.5 0 0 1-1-1.9l.4-.9a21 21 0 0 1 1.8-2.7l.8-.9a2.3 2.3 0 0 1 1.3-.6 3.2 3.2 0 0 1 1.7.2 2.6 2.6 0 0 1 1 .8 20.7 20.7 0 0 1 2.3 3.6 1.9 1.9 0 0 1 .2 1.3 1.4 1.4 0 0 1-1.1 1.1h-1l-1-.4-.6-.3a3.6 3.6 0 0 0-1.3-.1 2.3 2.3 0 0 0-1.1.3l-.6.3-.6.2zM11.1.7a1.8 1.8 0 0 1 1 .6 3.4 3.4 0 0 1 .6 1.4 4.7 4.7 0 0 1-.3 3 2.4 2.4 0 0 1-.7.9 1.3 1.3 0 0 1-1.8-.1A3.1 3.1 0 0 1 9 4.8a4.7 4.7 0 0 1 .3-3A2 2 0 0 1 10.5.7h.6zM6.6.7l.6.3a2.5 2.5 0 0 1 .9 1.3 4.7 4.7 0 0 1-.2 3.5 2.3 2.3 0 0 1-.8 1 1.3 1.3 0 0 1-1.7-.2A3.1 3.1 0 0 1 4.6 5a4.7 4.7 0 0 1 .3-3A2 2 0 0 1 6 .7h.7zm8.9 6.2a3.6 3.6 0 0 1-1.6 3 1.1 1.1 0 0 1-1.3.1 1.3 1.3 0 0 1-.6-1 3.6 3.6 0 0 1 .7-2.7 2.5 2.5 0 0 1 .9-.8 1.1 1.1 0 0 1 1.7.9c.2.1.2.3.2.5zM1.8 7A2.5 2.5 0 0 1 2 6a1.1 1.1 0 0 1 1.4-.7 2.4 2.4 0 0 1 1.2.9 3.7 3.7 0 0 1 .7 2.3 2.4 2.4 0 0 1-.1.7 1.1 1.1 0 0 1-1.6.7 2.7 2.7 0 0 1-1.1-1A3.8 3.8 0 0 1 1.8 7z"/></symbol><symbol id="256" viewBox="0 0 256 256"><path d="M72.5 256.5c-2.8-.6-5.7-1-8.5-1.8-17.5-5.1-21.8-21.3-17.6-33.9a85.1 85.1 0 0 1 7.7-16.2c9.3-15.6 19-31 30.5-45.1A168.2 168.2 0 0 1 98.9 144c6.8-6.4 15.4-9.5 24.5-10.8a62 62 0 0 1 31.9 3.3c7.7 3 13.3 8.4 18.5 14.4a360.2 360.2 0 0 1 42.9 62.5c3.8 7 5.5 14.5 3.6 22.4-2.4 10.5-9.4 16.5-19.5 19.2-2.4.6-4.9 1-7.3 1.5h-12a9.2 9.2 0 0 0-1.6-.5c-6.8-.8-12.8-3.8-18.8-6.9a68.4 68.4 0 0 0-11.8-5c-7.7-2.3-15.7-1.8-23.5-1.4a42.8 42.8 0 0 0-19.7 5.5 85.3 85.3 0 0 1-10.9 5.5c-3.3 1.3-6.8 1.9-10.2 2.9zM173 .5a33.4 33.4 0 0 1 17.6 11.1 58.2 58.2 0 0 1 11.7 24.5c4.1 18.2 2.9 35.9-5.3 52.8a41.6 41.6 0 0 1-12.1 15.3c-10.5 8-23 7.4-32.8-1.5s-13.3-18-15.7-29.2c-4-17.9-2.7-35.4 5.4-52.1 4.2-8.7 10.2-16 19.7-19.6l4-1.3zM91.5.5c3.6 1.6 7.5 2.8 10.7 5 8.2 5.5 13 13.8 16.1 22.9 6.9 20.5 6.3 40.7-2.9 60.5a40.2 40.2 0 0 1-13.9 16.7c-10 6.7-21.9 5.6-31.2-2.9S57.4 85.3 54.8 74.5c-4.2-18.2-3-36 5.2-53C64.3 12.8 70.2 5.6 79.6 2L84 .5zm162.3 108.8c-2 21.6-10.1 39.9-29.4 51.6-7.3 4.4-15.3 5.7-23.2 1.1-6.3-3.7-9.4-9.8-10.6-16.7-3.1-17.6 2.5-33 12.6-47a45.2 45.2 0 0 1 17.3-14.8c15-7.1 28.6-.3 31.9 15.9.7 3.1.9 6.5 1.4 9.9zM3.5 110.9c0-7.3.8-12.4 2.9-17.3C11 82.8 21.1 78.1 32.3 81.7c9 2.9 15.7 8.9 21.3 16.2 8.8 11.6 13.8 24.6 13.6 39.3a40.3 40.3 0 0 1-2.1 12.4c-4.6 13.4-16.7 18.5-29.6 12.7-8.8-3.9-15.3-10.4-20.6-18.3-7.1-10.6-11.1-22.2-11.4-33.1z"/></symbol><symbol id="32" viewBox="0 0 32 32"><path d="M9.6 30.9l-1-.2a3.1 3.1 0 0 1-2.1-4 10.2 10.2 0 0 1 .9-1.9 43.5 43.5 0 0 1 3.6-5.4l1.7-1.9a5.2 5.2 0 0 1 2.9-1.3 7.4 7.4 0 0 1 3.8.4 5.6 5.6 0 0 1 2.2 1.7 43 43 0 0 1 5.1 7.5 3.7 3.7 0 0 1 .4 2.7 3 3 0 0 1-2.3 2.3l-.9.2h-1.5a6.6 6.6 0 0 1-2.2-.8l-1.4-.6a8.4 8.4 0 0 0-2.8-.2 5.1 5.1 0 0 0-2.4.7l-1.3.7-1.2.3zM21.6.4a4 4 0 0 1 2.1 1.3 6.9 6.9 0 0 1 1.4 2.9 9.3 9.3 0 0 1-.6 6.3 5 5 0 0 1-1.5 1.9 2.9 2.9 0 0 1-3.9-.2 6.4 6.4 0 0 1-1.9-3.5 9.3 9.3 0 0 1 .6-6.2A4.4 4.4 0 0 1 20.2.6l.5-.2zm-9.8 0l1.3.6A5.1 5.1 0 0 1 15 3.7a9.4 9.4 0 0 1-.3 7.2 4.8 4.8 0 0 1-1.7 2 2.9 2.9 0 0 1-3.7-.3 6.3 6.3 0 0 1-1.8-3.4 9.3 9.3 0 0 1 .6-6.3A4.3 4.3 0 0 1 10.4.6l.5-.2zm19.4 13a7.5 7.5 0 0 1-3.5 6.2 2.6 2.6 0 0 1-2.8.1 2.7 2.7 0 0 1-1.3-2 7.2 7.2 0 0 1 1.6-5.7 5.4 5.4 0 0 1 2.1-1.8 2.5 2.5 0 0 1 3.7 2c.1.4.1.8.2 1.2zm-29.9.2a5 5 0 0 1 .3-2.1 2.4 2.4 0 0 1 3.1-1.4A5.2 5.2 0 0 1 7.3 12a7.5 7.5 0 0 1 1.6 4.7 4.8 4.8 0 0 1-.3 1.5 2.4 2.4 0 0 1-3.5 1.5 5.8 5.8 0 0 1-2.5-2.2 7.6 7.6 0 0 1-1.3-3.9z"/></symbol><symbol id="64" viewBox="0 0 64 64"><path d="M17.7 64l-2.1-.5a6.4 6.4 0 0 1-4.4-8.5 21.3 21.3 0 0 1 1.9-4 91.1 91.1 0 0 1 7.6-11.3 42.1 42.1 0 0 1 3.6-3.9 10.9 10.9 0 0 1 6.1-2.7 15.5 15.5 0 0 1 8 .8 11.8 11.8 0 0 1 4.6 3.7 90 90 0 0 1 10.7 15.6 7.8 7.8 0 0 1 .9 5.6 6.2 6.2 0 0 1-4.9 4.8l-1.8.4h-3.4a13.8 13.8 0 0 1-4.7-1.7 17.1 17.1 0 0 0-3-1.3 17.5 17.5 0 0 0-5.9-.4A10.7 10.7 0 0 0 26 62l-2.7 1.4-2.5.7zM42.8 0a8.4 8.4 0 0 1 4.4 2.8 14.6 14.6 0 0 1 2.9 6.1 19.6 19.6 0 0 1-1.3 13.2 10.4 10.4 0 0 1-3 3.8 6.1 6.1 0 0 1-8.2-.4 13.5 13.5 0 0 1-3.9-7.3A19.4 19.4 0 0 1 35 5.3 9.1 9.1 0 0 1 39.9.4l1-.4zM22.4 0a18.2 18.2 0 0 1 2.7 1.3 10.8 10.8 0 0 1 4 5.7 19.6 19.6 0 0 1-.7 15.1 10.1 10.1 0 0 1-3.5 4.2 6.1 6.1 0 0 1-7.8-.7 13.3 13.3 0 0 1-3.9-7.1 19.4 19.4 0 0 1 1.4-13.3A9.1 9.1 0 0 1 19.4.4l1.2-.4zM63 27.2c-.5 5.4-2.5 10-7.3 12.9a5.4 5.4 0 0 1-5.8.3 5.7 5.7 0 0 1-2.7-4.2c-.8-4.4.6-8.2 3.2-11.8a11.3 11.3 0 0 1 4.3-3.7c3.7-1.8 7.1-.1 8 4 .1.8.2 1.6.3 2.5zm-62.6.4a10.5 10.5 0 0 1 .7-4.3 5 5 0 0 1 6.5-3 10.9 10.9 0 0 1 5.4 4.1 15.7 15.7 0 0 1 3.4 9.8 10.1 10.1 0 0 1-.5 3.1c-1.1 3.4-4.2 4.6-7.4 3.2a12.3 12.3 0 0 1-5.2-4.6 15.9 15.9 0 0 1-2.9-8.3z"/></symbol></svg>